<?xml version="1.0" standalone="no"?>
<!DOCTYPE svg PUBLIC "-//W3C//DTD SVG 20010904//EN"
 "http://www.w3.org/TR/2001/REC-SVG-20010904/DTD/svg10.dtd">
<svg version="1.0" xmlns="http://www.w3.org/2000/svg"
 width="300.000000pt" height="300.000000pt" viewBox="0 0 300.000000 300.000000"
 preserveAspectRatio="xMidYMid meet">
<metadata>
Created by potrace 1.11, written by Peter Selinger 2001-2013
</metadata>
<g transform="translate(0.000000,300.000000) scale(0.100000,-0.100000)"
fill="#000000" stroke="none">
<path d="M1440 2848 c-11 -12 -20 -27 -21 -32 0 -6 -2 -18 -3 -26 -2 -8 -7
-42 -11 -75 -11 -85 -11 -85 -30 -185 -3 -14 -7 -41 -10 -60 -9 -58 -72 -290
-100 -370 -32 -91 -123 -278 -176 -363 -21 -34 -46 -78 -56 -97 -9 -19 -21
-39 -26 -45 -4 -5 -32 -50 -62 -100 -93 -157 -182 -338 -200 -410 -36 -143
-24 -330 30 -470 48 -123 90 -188 183 -281 84 -85 198 -152 312 -185 49 -14
51 -14 125 -24 234 -32 485 51 645 215 154 157 229 344 228 565 -1 161 -46
295 -167 495 -22 36 -51 87 -66 114 -15 27 -35 61 -44 75 -23 35 -36 58 -66
111 -14 25 -38 68 -55 95 -104 175 -184 396 -240 670 -27 129 -28 135 -46 285
-7 63 -26 105 -49 114 -34 12 -75 6 -95 -16z"/>
</g>
</svg>
